<?xml version="1.0" encoding="UTF-8" standalone="no"?>
<!-- Generator: Adobe Illustrator 20.1.0, SVG Export Plug-In . SVG Version: 6.00 Build 0)  -->

<svg
   xmlns:dc="http://purl.org/dc/elements/1.1/"
   xmlns:cc="http://creativecommons.org/ns#"
   xmlns:rdf="http://www.w3.org/1999/02/22-rdf-syntax-ns#"
   xmlns:svg="http://www.w3.org/2000/svg"
   xmlns="http://www.w3.org/2000/svg"
   xmlns:xlink="http://www.w3.org/1999/xlink"
   xmlns:sodipodi="http://sodipodi.sourceforge.net/DTD/sodipodi-0.dtd"
   xmlns:inkscape="http://www.inkscape.org/namespaces/inkscape"
   version="1.1"
   id="Calque_1"
   x="0px"
   y="0px"
   viewBox="0 0 160 239.99999"
   xml:space="preserve"
   inkscape:version="0.91 r13725"
   sodipodi:docname="internship.svg"
   width="160"
   height="240"><metadata
     id="metadata7003"><rdf:RDF><cc:Work
         rdf:about=""><dc:format>image/svg+xml</dc:format><dc:type
           rdf:resource="http://purl.org/dc/dcmitype/StillImage" /><dc:title /></cc:Work></rdf:RDF></metadata><defs
     id="defs7001"><mask
       maskUnits="userSpaceOnUse"
       id="mask4425"><path
         style="color:#000000;clip-rule:nonzero;display:inline;overflow:visible;visibility:visible;opacity:1;isolation:auto;mix-blend-mode:normal;color-interpolation:sRGB;color-interpolation-filters:linearRGB;solid-color:#000000;solid-opacity:1;fill:#ffffff;fill-opacity:1;fill-rule:nonzero;stroke:none;stroke-width:2.18799996;stroke-linecap:round;stroke-linejoin:round;stroke-miterlimit:4;stroke-dasharray:none;stroke-dashoffset:0;stroke-opacity:1;color-rendering:auto;image-rendering:auto;shape-rendering:auto;text-rendering:auto;enable-background:accumulate"
         d="m 101.86999,126.96872 a 31.898075,23.317307 0 0 1 -22.589838,6.87695 31.898075,23.317307 0 0 1 -22.582032,-6.86719 99.190765,66.478912 0 0 0 -76.609375,64.65039 99.190765,66.478912 0 0 0 99.191407,66.47852 99.190765,66.478912 0 0 0 99.189448,-66.47852 99.190765,66.478912 0 0 0 -76.59961,-64.66015 z"
         id="path4427"
         inkscape:connector-curvature="0" /></mask><mask
       maskUnits="userSpaceOnUse"
       id="mask3455"><path
         style="color:#000000;clip-rule:nonzero;display:inline;overflow:visible;visibility:visible;opacity:1;isolation:auto;mix-blend-mode:normal;color-interpolation:sRGB;color-interpolation-filters:linearRGB;solid-color:#000000;solid-opacity:1;fill:#ffffff;fill-opacity:1;fill-rule:nonzero;stroke:none;stroke-width:2.18799996;stroke-linecap:round;stroke-linejoin:round;stroke-miterlimit:4;stroke-dasharray:none;stroke-dashoffset:0;stroke-opacity:1;color-rendering:auto;image-rendering:auto;shape-rendering:auto;text-rendering:auto;enable-background:accumulate"
         d="m 104.78793,121.39183 a 45.328883,73.343676 0 0 1 -25.508633,12.80354 45.328883,73.343676 0 0 1 -25.508636,-12.72699 45.328883,73.343676 0 0 0 -19.81988,60.54009 45.328883,73.343676 0 0 0 45.328516,73.34361 45.328883,73.343676 0 0 0 45.328513,-73.34361 45.328883,73.343676 0 0 0 -19.81988,-60.61664 z"
         id="path3457"
         inkscape:connector-curvature="0" /></mask><linearGradient
       inkscape:collect="always"
       id="linearGradient4291"><stop
         style="stop-color:#000000;stop-opacity:1"
         offset="0"
         id="stop4293" /><stop
         id="stop4301"
         offset="0.09558055"
         style="stop-color:#ffffff;stop-opacity:1" /><stop
         id="stop4299"
         offset="0.5"
         style="stop-color:#ffffff;stop-opacity:1" /><stop
         style="stop-color:#ffffff;stop-opacity:1"
         offset="0.90023172"
         id="stop4303" /><stop
         style="stop-color:#000000;stop-opacity:1"
         offset="1"
         id="stop4295" /></linearGradient><linearGradient
       inkscape:collect="always"
       xlink:href="#linearGradient4291"
       id="linearGradient4370"
       gradientUnits="userSpaceOnUse"
       gradientTransform="translate(0,-2.1035156e-6)"
       x1="79.838463"
       y1="-8.0307531"
       x2="79.838463"
       y2="232.60385" /><mask
       maskUnits="userSpaceOnUse"
       id="mask4366"><rect
         style="color:#000000;clip-rule:nonzero;display:inline;overflow:visible;visibility:visible;opacity:1;isolation:auto;mix-blend-mode:normal;color-interpolation:sRGB;color-interpolation-filters:linearRGB;solid-color:#000000;solid-opacity:1;fill:url(#linearGradient4370);fill-opacity:1;fill-rule:nonzero;stroke:none;stroke-width:2.18799996;stroke-linecap:round;stroke-linejoin:round;stroke-miterlimit:4;stroke-dasharray:none;stroke-dashoffset:0;stroke-opacity:1;color-rendering:auto;image-rendering:auto;shape-rendering:auto;text-rendering:auto;enable-background:accumulate"
         id="rect4368"
         width="160"
         height="240"
         x="0"
         y="-7.8999958" /></mask></defs><sodipodi:namedview
     pagecolor="#ffffff"
     bordercolor="#666666"
     borderopacity="1"
     objecttolerance="10"
     gridtolerance="10"
     guidetolerance="10"
     inkscape:pageopacity="0"
     inkscape:pageshadow="2"
     inkscape:window-width="1920"
     inkscape:window-height="1031"
     id="namedview6999"
     showgrid="false"
     fit-margin-top="0"
     fit-margin-left="0"
     fit-margin-right="0"
     fit-margin-bottom="-1.4"
     inkscape:zoom="2.6804124"
     inkscape:cx="-11.659572"
     inkscape:cy="88.211372"
     inkscape:window-x="0"
     inkscape:window-y="1107"
     inkscape:window-maximized="1"
     inkscape:current-layer="layer3"
     borderlayer="true" /><style
     type="text/css"
     id="style6103">
	.st0{fill:#EFF7EC;}
	.st1{fill:#F6F6F8;}
	.st2{fill:#DEDFE5;}
	.st3{fill:#B8DBA6;}
	.st4{fill:#FBCC73;}
	.st5{fill:#FFFFFF;}
	.st6{fill:#212A51;}
	.st7{fill:none;stroke:#212A51;stroke-miterlimit:10;}
	.st8{fill:#212B51;}
	.st9{fill:#9095A8;}
	.st10{fill:#FAB434;}
	.st11{fill:#4D5574;}
	.st12{fill:#FABD4A;}
	.st13{fill:#FCD58D;}
	.st14{fill:#FDDEA6;}
	.st15{fill:#FBCB71;}
	.st16{fill:#666C87;}
	.st17{fill:#FDDDA4;}
	.st18{fill:#EBECEF;}
	.st19{fill:#EFF0F3;}
	.st20{fill:#D3D4DC;}
	.st21{fill:#BCBFCB;}
	.st22{fill:#F4F4F6;}
	.st23{fill:#00AFCC;}
	.st24{fill:#CECFE1;}
	.st25{fill:#4CC7DB;}
	.st26{fill:#0E2356;}
	.st27{fill:#DADAE8;}
	.st28{fill:#4FBED6;}
	.st29{fill:#00AECA;}
	.st30{fill:#898EA3;}
	.st31{fill:#A6AAB9;}
	.st32{fill:#E7E8EC;}
	.st33{fill:#B3B5CF;}
	.st34{fill:#324071;}
	.st35{fill:#00ADCA;}
	.st36{fill-rule:evenodd;clip-rule:evenodd;fill:#0E2356;}
	.st37{fill:#8ACFCF;}
	.st38{fill:#636A85;}
	.st39{fill:#E8E8F1;}
	.st40{fill:#D6D6E5;}
	.st41{fill:#D7EBCD;}
	.st42{fill:#EDEEF1;}
	.st43{fill:#EAF4E4;}
	.st44{fill:#D4E9CA;}
	.st45{fill:#9CCD83;}
	.st46{fill:#8DC571;}
	.st47{fill:#E4E5EA;}
	.st48{fill:#9599AB;}
	.st49{fill:#646A85;}
	.st50{fill:#DA592A;}
	.st51{fill:#8B8FA4;}
	.st52{fill-rule:evenodd;clip-rule:evenodd;fill:#212A51;}
	.st53{fill:#7FBE60;}
	.st54{fill:#7E849A;}
	.st55{fill:#DEF5F8;}
	.st56{fill:#E2E3E8;}
	.st57{fill:#B4B7C4;}
	.st58{fill:#71B74E;}
	.st59{fill:#6D738C;}
	.st60{fill:#ABAEBD;}
	.st61{fill:#AAD495;}
	.st62{fill:#D5D7DE;}
	.st63{fill:#C8CAD3;}
	.st64{fill:#BABDC9;}
	.st65{fill:#7A7F97;}
	.st66{fill:#8C90A4;}
	.st67{fill:#A4A8B8;}
	.st68{fill:#D0D2DA;}
	.st69{fill:#BFC1CD;}
	.st70{fill:#A8ACBB;}
	.st71{fill-rule:evenodd;clip-rule:evenodd;fill:#EFF0F3;}
	.st72{fill-rule:evenodd;clip-rule:evenodd;fill:#E2E3E8;}
	.st73{fill-rule:evenodd;clip-rule:evenodd;fill:#ABAEBD;}
	.st74{fill-rule:evenodd;clip-rule:evenodd;fill:#F0F0F0;}
	.st75{fill-rule:evenodd;clip-rule:evenodd;fill:#E4E5EA;}
	.st76{fill-rule:evenodd;clip-rule:evenodd;fill:#C5C8D2;}
	.st77{fill-rule:evenodd;clip-rule:evenodd;fill:#DEDFE5;}
	.st78{fill:#212A51;stroke:#212A51;stroke-width:0.6136;stroke-miterlimit:10;}
	.st79{fill:none;stroke:#778692;stroke-width:0.5243;stroke-linecap:round;stroke-linejoin:round;stroke-miterlimit:10;}
	.st80{fill:none;stroke:#BCBFCB;stroke-width:1.9222;stroke-linecap:round;stroke-linejoin:round;stroke-miterlimit:10;}
	.st81{fill:none;stroke:#778692;stroke-width:0.53;stroke-linecap:round;stroke-linejoin:round;stroke-miterlimit:10;}
	.st82{fill:#59607C;}
	.st83{fill-rule:evenodd;clip-rule:evenodd;fill:#C8CAD3;}
	.st84{fill:#0C2638;}
	.st85{fill:#D9DBE1;}
	.st86{fill:#737991;}
	.st87{fill:#E3F1DC;}
	.st88{fill:#83889D;}
	.st89{fill:#B1B5C2;}
	.st90{fill:#AFB2C0;}
	.st91{fill:#A6A9C6;}
	.st92{fill:#8B90B4;}
	.st93{fill:#D1D5DF;}
	.st94{fill:#EEF0F3;}
	.st95{fill:#E9EBF0;}
	.st96{fill:#C6E2B8;}
	.st97{opacity:0.3;fill:#D9DBE1;}
	.st98{fill:#F1F8ED;}
	.st99{fill:#6DC3C3;}
	.st100{fill:#CCEFF5;}
	.st101{fill:#19B7D1;}
	.st102{fill:#FDFDFD;}
	.st103{fill-rule:evenodd;clip-rule:evenodd;fill:#71B74E;}
	.st104{fill-rule:evenodd;clip-rule:evenodd;fill:#9CCD83;}
	.st105{fill-rule:evenodd;clip-rule:evenodd;fill:#FFFFFF;}
	.st106{fill:none;stroke:#0E2356;stroke-width:6.5117;stroke-miterlimit:10;}
	.st107{fill:none;stroke:#0E2356;stroke-width:4.3421;stroke-linejoin:round;stroke-miterlimit:10;}
	.st108{fill:none;stroke:#FFFFFF;stroke-width:1.3324;stroke-miterlimit:10;}
	.st109{fill:#FBFBFC;}
</style><g
     inkscape:groupmode="layer"
     id="layer3"
     inkscape:label="trail"><path
       style="display:inline;fill:#d4e9ca"
       inkscape:connector-curvature="0"
       id="XMLID_3691_"
       class="st44"
       d="m 158.06538,240.29999 c -0.3,-10.5 -9.1,-19 -20,-19 l -0.2,0 c -2.1,-13.5 -14,-23.9 -28.4,-23.9 l -0.2,0 0,0 0.2,0 C 82.665385,163.5 88.965385,80.099992 88.965385,80.099992 l -15.9,0 c 0,0 6.1,84.700008 -20.8,115.899998 -1.6,-0.3 -3.3,-0.4 -5,-0.4 -14.4,0 -26.2,10.4 -28.3,23.8 -0.1,0 -0.2,0 -0.4,0 -9.2000004,0 -16.7000004,7.4 -16.7000004,16.4 0,1.7 0.3,3.3 0.7,4.8 l 155.4999954,-0.3 z" /><g
       id="g4274"
       class="smoke-clouds"
       style="fill:#ffffff"><path
         d="m 116.96538,241.19999 c 0,-6.8 -6.2,-12.3 -13.9,-12.2 -1.5,0 -3,0.2 -4.399995,0.7 0.1,-0.6 0.1,-1.1 0.1,-1.7 0,-8.4 -7.7,-15.2 -17.3,-15.2 -6.9,0 -12.8,3.6 -15.5,8.7 -2,-0.7 -4.2,-1.2 -6.5,-1.2 -9.1,0 -16.4,6.5 -16.4,14.5 0,2.4 0.7,4.6 1.8,6.6 l 72.099995,-0.2 z"
         class="cloud-1"
         id="XMLID_3690_"
         inkscape:connector-curvature="0"
         style="display:inline" /><path
         style="display:none"
         inkscape:connector-curvature="0"
         id="path4281"
         class="cloud-2"
         d="m 43.065385,241.19999 c 0,-6.8 6.2,-12.3 13.9,-12.2 1.5,0 3,0.2 4.399995,0.7 -0.1,-0.6 -0.1,-1.1 -0.1,-1.7 0,-8.4 7.7,-15.2 17.3,-15.2 6.9,0 12.8,3.6 15.5,8.7 2,-0.7 4.2,-1.2 6.5,-1.2 9.1,0 16.4,6.5 16.4,14.5 0,2.4 -0.7,4.6 -1.8,6.6 l -72.099995,-0.2 z" /></g><path
       inkscape:connector-curvature="0"
       style="display:inline;fill:#ffffff"
       d="m 81.865385,203.29999 -1.5,0 -3.7,-62.29999 8.6,-0.1 z"
       class="fire"
       id="path21-3" /></g><g
     inkscape:groupmode="layer"
     id="layer2"
     inkscape:label="rocket"><g
       style="display:inline"
       transform="translate(1.8653846,7.8999924)"
       id="g4411"
       class="rocket"><path
         style="fill:#324071"
         inkscape:connector-curvature="0"
         id="XMLID_3689_"
         class="st34"
         d="m 79.3,39.4 -0.2,0 c -8.5,0.2 -15.2,6.9 -15.2,15.2 0,8.4 6.9,15.3 15.4,15.3 l 0.1,0 0,-5.8 c -5.3,0 -9.7,-4.3 -9.6,-9.5 0,-5.2 4.2,-9.3 9.8,-9.5 l 0,0 0,0 -0.3,-5.7 z" /><path
         d="M 79.3,69.9 C 70.7,69.8 63.8,63 63.9,54.6 c 0,-8.3 6.8,-15 15.2,-15.2 l 0.2,0 0,-8.9 -19.8,0.3 c -2.1,5.5 -3.4,12.4 -3.4,19.3 0.1,11.1 1.8,30 3.4,45.1 l 5.7,25.1 13.9,-0.3 0.2,-50.1 z"
         class="st45"
         id="XMLID_3688_"
         inkscape:connector-curvature="0"
         style="fill:#9ccd83" /><path
         d="M 101.9,49.8 C 101.8,42.9 100.4,36 98.6,30.2 l -19.2,0.3 0,8.9 0.2,0 c 4.2,0 8.1,1.6 11,4.5 2.9,2.9 4.5,6.7 4.5,10.8 -0.1,8.3 -6.8,15 -15.3,15.2 l -0.4,0 -0.1,0 -0.1,50.1 0,0 14.6,-0.3 4.7,-25.2 c 1.6,-15.2 3.3,-33.9 3.4,-44.7"
         class="st46"
         id="XMLID_3687_"
         inkscape:connector-curvature="0"
         style="fill:#8dc571" /><path
         d="M 44.3,110.4 47.9,127.6 63,119 c 0.5,0.4 1.2,0.9 2.3,1.3 L 59.6,95.2 44.3,110.4 Z"
         class="st9"
         id="XMLID_3686_"
         inkscape:connector-curvature="0"
         style="fill:#9095a8" /><path
         d="m 78.7,0 c 0,0 -12.9,12.1 -19.1,30.8 L 79.4,30.5 78.7,0 Z"
         class="st9"
         id="XMLID_3685_"
         inkscape:connector-curvature="0"
         style="fill:#9095a8" /><path
         d="m 79.2,120 -13.9,0.3 2.3,5.8 c 0,0 0.7,2.1 11.6,2.3 l 0,-8.4 0,0 z"
         class="st9"
         id="XMLID_3684_"
         inkscape:connector-curvature="0"
         style="fill:#9095a8" /><path
         d="m 93.8,119.6 c 0.9,-0.4 1.4,-0.9 1.7,-1.2 l 15.6,8.6 3.4,-17.2 -16,-15.5 -4.7,25.3 z"
         class="st26"
         id="XMLID_3683_"
         inkscape:connector-curvature="0"
         style="fill:#0e2356" /><path
         d="M 98.6,30.2 C 91.8,12 78.7,0.1 78.7,0.1 l 0.6,30.5 19.3,-0.4 z"
         class="st26"
         id="XMLID_3682_"
         inkscape:connector-curvature="0"
         style="fill:#0e2356" /><path
         d="m 79.2,128.4 c 11.3,-0.1 12.3,-2.5 12.3,-2.5 l 2.3,-6.2 -14.6,0.3 0,8.4 z"
         class="st26"
         id="XMLID_3681_"
         inkscape:connector-curvature="0"
         style="fill:#0e2356" /><path
         d="M 90.5,43.9 C 87.6,41 83.7,39.4 79.5,39.4 l -0.2,0 0.2,5.8 0,0 c 2.6,0 5,1 6.8,2.8 1.8,1.8 2.8,4.2 2.8,6.7 0,5.2 -4.2,9.3 -9.5,9.4 l -0.3,0 -0.1,0 0,5.8 0.1,0 0.4,0 C 88.2,69.7 94.9,63.1 95,54.7 95,50.6 93.4,46.8 90.5,43.9"
         class="st26"
         id="XMLID_3680_"
         inkscape:connector-curvature="0"
         style="fill:#0e2356" /><path
         d="m 69.7,54.6 c 0,5.2 4.3,9.5 9.6,9.5 l 0.3,0 c 5.3,-0.1 9.4,-4.3 9.5,-9.4 0,-2.5 -1,-4.9 -2.8,-6.7 -1.8,-1.8 -4.2,-2.8 -6.8,-2.8 l 0,0 c -5.6,0.1 -9.7,4.2 -9.8,9.4"
         class="st5"
         id="XMLID_3679_"
         inkscape:connector-curvature="0"
         style="fill:#ffffff" /></g></g></svg>